#usda 1.0
(
    defaultPrim = "berkeley_humanoid_lite"
    subLayers = [
        @../../external/Berkeley-Humanoid-Lite/source/berkeley_humanoid_lite_assets/data/robots/berkeley_humanoid/berkeley_humanoid_lite/usd/berkeley_humanoid_lite.usd@
    ]
)

over "berkeley_humanoid_lite"
{
    over "arm_right_hand_link"
    {
        def Mesh "hand_collider" (
            prepend apiSchemas = ["PhysicsCollisionAPI", "PhysicsMeshCollisionAPI"]
        )
        {
            int[] faceVertexCounts = [3, 3, 3, 3, 3, 3, 3, 3, 3, 3, 3, 3, 3, 3, 3, 3, 3, 3, 3, 3, 3, 3, 3, 3, 3, 3, 3, 3, 3, 3, 3, 3, 3, 3, 3, 3, 3, 3, 3, 3, 3, 3, 3, 3, 3, 3, 3, 3, 3, 3, 3, 3, 3, 3, 3, 3, 3, 3, 3, 3, 3, 3, 3, 3, 3, 3, 3, 3, 3, 3, 3, 3, 3, 3, 3, 3, 3, 3, 3, 3, 3, 3, 3, 3, 3, 3, 3, 3, 3, 3, 3, 3, 3, 3, 3, 3, 3, 3, 3, 3, 3, 3, 3, 3, 3, 3, 3, 3, 3, 3, 3, 3, 3, 3, 3, 3, 3, 3, 3, 3, 3, 3, 3, 3]
            int[] faceVertexIndices = [48, 4, 0, 30, 36, 63, 9, 17, 29, 14, 25, 33, 14, 29, 17, 24, 25, 14, 24, 17, 7, 24, 14, 17, 16, 3, 7, 26, 63, 36, 26, 8, 63, 26, 36, 10, 26, 10, 8, 6, 63, 8, 6, 49, 63, 22, 10, 36, 22, 36, 30, 22, 48, 0, 38, 63, 49, 38, 30, 63, 11, 9, 25, 31, 25, 9, 31, 33, 25, 31, 9, 29, 31, 29, 14, 31, 14, 33, 13, 25, 5, 13, 4, 48, 13, 5, 4, 13, 41, 53, 13, 48, 41, 2, 7, 3, 2, 24, 7, 44, 49, 6, 44, 6, 8, 23, 16, 8, 23, 8, 10, 23, 10, 22, 15, 22, 30, 15, 30, 38, 28, 8, 40, 28, 40, 20, 28, 35, 8, 62, 20, 40, 62, 39, 20, 62, 12, 39, 62, 17, 12, 62, 21, 17, 62, 40, 21, 32, 11, 25, 32, 13, 53, 32, 25, 13, 57, 41, 49, 57, 53, 41, 57, 32, 53, 57, 11, 32, 56, 20, 39, 56, 59, 20, 56, 39, 12, 61, 49, 44, 61, 44, 20, 61, 20, 59, 61, 57, 49, 61, 59, 57, 58, 20, 44, 58, 28, 20, 1, 3, 16, 1, 16, 23, 51, 41, 48, 51, 27, 41, 47, 15, 38, 47, 27, 15, 47, 38, 49, 47, 49, 41, 47, 41, 27, 50, 40, 8, 50, 21, 40, 45, 59, 56, 45, 17, 59, 52, 35, 58, 52, 58, 44, 52, 8, 35, 52, 44, 8, 46, 35, 28, 46, 58, 35, 46, 28, 58, 37, 48, 22, 37, 51, 48, 37, 22, 15, 37, 15, 27, 37, 27, 51, 42, 9, 60, 19, 60, 9, 19, 42, 60, 18, 56, 12, 18, 45, 56, 18, 12, 17, 18, 17, 45, 34, 57, 59, 34, 42, 57, 34, 59, 17, 55, 57, 42, 55, 42, 19, 55, 9, 11, 55, 19, 9, 54, 17, 9, 54, 34, 17, 54, 9, 42, 54, 42, 34, 43, 11, 57, 43, 55, 11, 43, 57, 55, 2, 4, 5, 2, 3, 4, 2, 5, 25, 2, 25, 24, 1, 4, 3, 1, 0, 4, 1, 22, 0, 1, 23, 22, 50, 7, 17, 50, 8, 16, 50, 16, 7, 50, 17, 21]
            uniform token physics:approximation = "convexHull"
            point3f[] points = [(0.006000139, -0.016999945, -0.13299996), (0.0060000294, 0.013000053, -0.13299996), (-0.010999969, 0.012999991, -0.13299996), (-0.0029999702, 0.01300002, -0.13299996), (-0.0029998608, -0.016999979, -0.13299996), (-0.010999859, -0.017000008, -0.13299996), (0.02146692, -0.0011926817, 5.4290744e-8), (-0.023500146, 0.052999943, -0.04799996), (0.025999844, 0.053000126, -0.017999945), (-0.030999975, 0.0029999178, -0.017999964), (0.02600003, 0.005000126, -0.051999945), (-0.019981153, -0.01700004, -0.08256764), (-0.011000113, 0.039425343, -0.005999959), (-0.0027845036, -0.021318888, -0.016999954), (-0.03300001, 0.015999911, -0.050999966), (0.015000121, -0.016999913, -0.082999945), (0.018499853, 0.0530001, -0.047999945), (-0.031000154, 0.052999917, -0.019999964), (-0.01611008, 0.014237812, 3.9025636e-8), (-0.018042155, -0.011693112, 3.7791537e-8), (0.0086502815, 0.019683098, 5.0258375e-8), (0.0024747164, 0.05300004, -0.01799995), (0.015000133, -0.016999913, -0.112999946), (0.015000024, 0.013000086, -0.112999946), (-0.019999977, 0.012999958, -0.11299996), (-0.019999867, -0.01700004, -0.11299996), (0.02600002, 0.005000126, -0.019999944), (0.009856457, -0.01910758, 4.824585e-8), (0.010999887, 0.03942542, -0.0059999493), (-0.03300002, 0.015999911, -0.030999966), (0.01898592, -0.0100888815, -0.016999947), (-0.03099997, 0.0029999178, -0.038249966), (-0.006416358, -0.020520203, 4.169015e-8), (-0.030999962, 0.0029999178, -0.051999968), (-0.02135131, 0.0025239978, 3.982261e-8), (0.018322423, 0.011249025, 5.1385737e-8), (0.02600003, 0.0030001258, -0.032249946), (0.008167114, -0.019888377, -0.01699995), (0.018042298, -0.01169298, 5.0694503e-8), (-0.008650367, 0.019683035, 4.212901e-8), (0.0024747564, 0.040839605, -0.0059999507), (0.00093063794, -0.02147982, 4.7466905e-8), (-0.02094022, -0.0048739896, 3.9609308e-8), (-0.013001309, -0.017123496, 4.141284e-8), (0.021053072, 0.0043611545, 5.468867e-8), (-0.019226603, 0.009622225, 3.9523798e-8), (0.014818389, 0.015577778, 4.997478e-8), (0.014433615, -0.015934886, 5.2207238e-8), (0.00278473, -0.021318868, -0.016999952), (0.02044037, -0.0066664875, 5.4796843e-8), (0.0074747163, 0.05300006, -0.017999949), (0.0064165657, -0.020520156, 4.6761507e-8), (0.019986698, 0.007923607, 5.327393e-8), (-0.0027845101, -0.021318888, 4.3666073e-8), (-0.021466855, -0.0011928384, 3.8196113e-8), (-0.015757425, -0.01462709, 3.991929e-8), (-0.013415777, 0.016800808, 4.1765716e-8), (-0.009856259, -0.019107651, 4.3990443e-8), (0.011912516, 0.01789815, 5.050295e-8), (-0.020597035, 0.006165329, 4.0221586e-8), (-0.019787153, -0.008409334, 3.6991523e-8), (0.018850025, 0.0014723432, 5.4537722e-8), (-0.0076749916, 0.040839568, -0.0059999544), (0.026000025, 0.0030001258, -0.017999945)]
            uniform token purpose = "guide"
        }
    }

    over "arm_left_hand_link"
    {
        def Mesh "hand_collider" (
            prepend apiSchemas = ["PhysicsCollisionAPI", "PhysicsMeshCollisionAPI"]
        )
        {
            int[] faceVertexCounts = [3, 3, 3, 3, 3, 3, 3, 3, 3, 3, 3, 3, 3, 3, 3, 3, 3, 3, 3, 3, 3, 3, 3, 3, 3, 3, 3, 3, 3, 3, 3, 3, 3, 3, 3, 3, 3, 3, 3, 3, 3, 3, 3, 3, 3, 3, 3, 3, 3, 3, 3, 3, 3, 3, 3, 3, 3, 3, 3, 3, 3, 3, 3, 3, 3, 3, 3, 3, 3, 3, 3, 3, 3, 3, 3, 3, 3, 3, 3, 3, 3, 3, 3, 3, 3, 3, 3, 3, 3, 3, 3, 3, 3, 3, 3, 3, 3, 3, 3, 3, 3, 3, 3, 3, 3, 3, 3, 3, 3, 3, 3, 3, 3, 3, 3, 3, 3, 3, 3, 3, 3, 3, 3, 3]
            int[] faceVertexIndices = [6, 25, 8, 16, 1, 7, 16, 8, 23, 16, 23, 1, 17, 14, 29, 17, 22, 14, 17, 7, 22, 28, 8, 40, 20, 28, 40, 27, 40, 8, 27, 17, 40, 12, 40, 17, 2, 22, 7, 10, 8, 25, 10, 23, 8, 42, 29, 14, 36, 8, 28, 45, 20, 40, 45, 40, 12, 45, 12, 58, 3, 7, 1, 3, 2, 7, 47, 36, 28, 48, 6, 8, 60, 52, 6, 60, 6, 48, 60, 8, 36, 60, 48, 8, 44, 35, 41, 21, 14, 22, 9, 29, 42, 9, 21, 11, 9, 35, 17, 9, 17, 29, 33, 10, 25, 24, 23, 10, 24, 10, 33, 32, 52, 41, 32, 11, 21, 32, 54, 11, 59, 52, 60, 59, 28, 20, 59, 47, 28, 59, 36, 47, 59, 60, 36, 57, 17, 35, 57, 35, 44, 57, 44, 17, 55, 44, 58, 55, 12, 17, 55, 17, 44, 63, 42, 14, 51, 33, 25, 51, 39, 33, 51, 25, 6, 51, 6, 39, 50, 52, 32, 50, 6, 52, 50, 39, 6, 30, 33, 39, 30, 24, 33, 49, 0, 24, 19, 9, 11, 13, 61, 32, 13, 32, 21, 13, 49, 61, 13, 21, 5, 13, 0, 49, 37, 52, 59, 37, 41, 52, 37, 44, 41, 37, 58, 44, 37, 59, 20, 37, 20, 45, 37, 45, 58, 18, 58, 12, 18, 12, 55, 18, 55, 58, 34, 14, 21, 34, 63, 14, 34, 42, 63, 15, 50, 26, 15, 39, 50, 15, 30, 39, 15, 24, 30, 4, 13, 5, 4, 0, 13, 43, 61, 49, 43, 32, 61, 43, 50, 32, 38, 49, 24, 38, 15, 26, 38, 24, 15, 46, 35, 9, 46, 41, 35, 46, 19, 41, 53, 32, 41, 53, 41, 19, 53, 54, 32, 53, 11, 54, 53, 19, 11, 31, 21, 9, 31, 34, 21, 31, 9, 42, 31, 42, 34, 56, 43, 49, 56, 49, 38, 56, 38, 26, 56, 26, 50, 56, 50, 43, 62, 9, 19, 62, 46, 9, 62, 19, 46, 27, 16, 7, 27, 8, 16, 27, 7, 17, 21, 2, 5, 21, 22, 2, 0, 23, 24, 0, 1, 23, 4, 5, 2, 4, 2, 3, 4, 1, 0, 4, 3, 1]
            uniform token physics:approximation = "convexHull"
            point3f[] points = [(0.006000083, -0.016999945, -0.13299996), (0.0059999735, 0.013000052, -0.13299996), (-0.011000027, 0.012999991, -0.13299996), (-0.003000026, 0.01300002, -0.13299996), (-0.0029999167, -0.016999979, -0.13299996), (-0.010999917, -0.017000008, -0.13299996), (0.021466957, -0.0011926816, 3.7104925e-8), (-0.023500143, 0.052999943, -0.04799995), (0.025999868, 0.053000126, -0.017999964), (-0.030999947, 0.002999918, -0.017999943), (0.026000032, 0.005000126, -0.051999968), (-0.019981174, -0.01700004, -0.082567625), (-0.011000078, 0.039425343, -0.0059999498), (-0.002784477, -0.021318888, -0.016999954), (-0.033000007, 0.015999911, -0.050999943), (0.015000101, -0.016999913, -0.08299996), (0.018499857, 0.0530001, -0.047999963), (-0.031000132, 0.052999917, -0.019999946), (-0.01611004, 0.014237813, 4.89374e-8), (-0.018042115, -0.011693112, 5.018656e-8), (0.008650321, 0.019683098, 4.14386e-8), (-0.019999912, -0.01700004, -0.112999946), (-0.02000002, 0.012999957, -0.112999946), (0.01499998, 0.013000085, -0.11299996), (0.015000089, -0.016999913, -0.11299996), (0.026000045, 0.005000126, -0.019999964), (0.009856496, -0.01910758, 3.9852768e-8), (0.0047498676, 0.053000048, -0.017999955), (0.010999922, 0.03942542, -0.0059999595), (-0.033, 0.015999911, -0.030999944), (0.018985948, -0.0100888815, -0.016999962), (-0.030999957, 0.0029999178, -0.038249943), (-0.004617695, -0.020998213, 4.7334655e-8), (0.026000045, 0.0030001258, -0.038249966), (-0.03099996, 0.0029999178, -0.051999945), (-0.021489551, 0.000668083, 5.3115695e-8), (0.018322464, 0.011249025, 3.7014193e-8), (-0.004465924, 0.016861996, 4.7384923e-8), (0.008167142, -0.019888377, -0.016999956), (0.018042339, -0.011692979, 3.7705426e-8), (0.0024747904, 0.040839605, -0.0059999544), (-0.010641947, -0.016028456, 4.9657558e-8), (-0.032999996, 0.013499911, -0.038249943), (0.0027847625, -0.021318868, 4.3135366e-8), (-0.01998666, 0.0079234615, 5.2689582e-8), (-0.010320101, 0.018861212, 4.756702e-8), (-0.020940179, -0.004873989, 5.2449234e-8), (0.014818429, 0.015577779, 3.8123844e-8), (0.02105311, 0.004361155, 3.646596e-8), (0.002784757, -0.021318868, -0.016999954), (0.014433654, -0.015934886, 3.9550002e-8), (0.020440409, -0.006666487, 3.683987e-8), (0.01640259, 0.0005815253, 4.0166345e-8), (-0.014433401, -0.01593499, 4.8117464e-8), (-0.008166866, -0.019888436, 4.6019235e-8), (-0.018322408, 0.011248892, 5.0788437e-8), (0.006416605, -0.020520156, 4.115633e-8), (-0.021053007, 0.0043610013, 5.0580105e-8), (-0.013415739, 0.01680081, 4.993126e-8), (0.011912555, 0.01789815, 4.1107402e-8), (0.019986738, 0.007923607, 3.8242266e-8), (-0.00093038246, -0.021479828, 4.357951e-8), (-0.019787114, -0.008409334, 5.0866056e-8), (-0.033, 0.013499911, -0.04824994)]
            uniform token purpose = "guide"
        }
    }
}

