# cloth proxy 10x10 vertices=100 faces=162
# size_xy=(0.28, 0.22)
v -0.140000 -0.110000 0.000000
v -0.108889 -0.110000 0.000000
v -0.077778 -0.110000 0.000000
v -0.046667 -0.110000 0.000000
v -0.015556 -0.110000 0.000000
v 0.015556 -0.110000 0.000000
v 0.046667 -0.110000 0.000000
v 0.077778 -0.110000 0.000000
v 0.108889 -0.110000 0.000000
v 0.140000 -0.110000 0.000000
v -0.140000 -0.085556 0.000000
v -0.108889 -0.085556 0.000000
v -0.077778 -0.085556 0.000000
v -0.046667 -0.085556 0.000000
v -0.015556 -0.085556 0.000000
v 0.015556 -0.085556 0.000000
v 0.046667 -0.085556 0.000000
v 0.077778 -0.085556 0.000000
v 0.108889 -0.085556 0.000000
v 0.140000 -0.085556 0.000000
v -0.140000 -0.061111 0.000000
v -0.108889 -0.061111 0.000000
v -0.077778 -0.061111 0.000000
v -0.046667 -0.061111 0.000000
v -0.015556 -0.061111 0.000000
v 0.015556 -0.061111 0.000000
v 0.046667 -0.061111 0.000000
v 0.077778 -0.061111 0.000000
v 0.108889 -0.061111 0.000000
v 0.140000 -0.061111 0.000000
v -0.140000 -0.036667 0.000000
v -0.108889 -0.036667 0.000000
v -0.077778 -0.036667 0.000000
v -0.046667 -0.036667 0.000000
v -0.015556 -0.036667 0.000000
v 0.015556 -0.036667 0.000000
v 0.046667 -0.036667 0.000000
v 0.077778 -0.036667 0.000000
v 0.108889 -0.036667 0.000000
v 0.140000 -0.036667 0.000000
v -0.140000 -0.012222 0.000000
v -0.108889 -0.012222 0.000000
v -0.077778 -0.012222 0.000000
v -0.046667 -0.012222 0.000000
v -0.015556 -0.012222 0.000000
v 0.015556 -0.012222 0.000000
v 0.046667 -0.012222 0.000000
v 0.077778 -0.012222 0.000000
v 0.108889 -0.012222 0.000000
v 0.140000 -0.012222 0.000000
v -0.140000 0.012222 0.000000
v -0.108889 0.012222 0.000000
v -0.077778 0.012222 0.000000
v -0.046667 0.012222 0.000000
v -0.015556 0.012222 0.000000
v 0.015556 0.012222 0.000000
v 0.046667 0.012222 0.000000
v 0.077778 0.012222 0.000000
v 0.108889 0.012222 0.000000
v 0.140000 0.012222 0.000000
v -0.140000 0.036667 0.000000
v -0.108889 0.036667 0.000000
v -0.077778 0.036667 0.000000
v -0.046667 0.036667 0.000000
v -0.015556 0.036667 0.000000
v 0.015556 0.036667 0.000000
v 0.046667 0.036667 0.000000
v 0.077778 0.036667 0.000000
v 0.108889 0.036667 0.000000
v 0.140000 0.036667 0.000000
v -0.140000 0.061111 0.000000
v -0.108889 0.061111 0.000000
v -0.077778 0.061111 0.000000
v -0.046667 0.061111 0.000000
v -0.015556 0.061111 0.000000
v 0.015556 0.061111 0.000000
v 0.046667 0.061111 0.000000
v 0.077778 0.061111 0.000000
v 0.108889 0.061111 0.000000
v 0.140000 0.061111 0.000000
v -0.140000 0.085556 0.000000
v -0.108889 0.085556 0.000000
v -0.077778 0.085556 0.000000
v -0.046667 0.085556 0.000000
v -0.015556 0.085556 0.000000
v 0.015556 0.085556 0.000000
v 0.046667 0.085556 0.000000
v 0.077778 0.085556 0.000000
v 0.108889 0.085556 0.000000
v 0.140000 0.085556 0.000000
v -0.140000 0.110000 0.000000
v -0.108889 0.110000 0.000000
v -0.077778 0.110000 0.000000
v -0.046667 0.110000 0.000000
v -0.015556 0.110000 0.000000
v 0.015556 0.110000 0.000000
v 0.046667 0.110000 0.000000
v 0.077778 0.110000 0.000000
v 0.108889 0.110000 0.000000
v 0.140000 0.110000 0.000000
f 1 11 2
f 2 11 12
f 2 12 3
f 3 12 13
f 3 13 4
f 4 13 14
f 4 14 5
f 5 14 15
f 5 15 6
f 6 15 16
f 6 16 7
f 7 16 17
f 7 17 8
f 8 17 18
f 8 18 9
f 9 18 19
f 9 19 10
f 10 19 20
f 11 21 12
f 12 21 22
f 12 22 13
f 13 22 23
f 13 23 14
f 14 23 24
f 14 24 15
f 15 24 25
f 15 25 16
f 16 25 26
f 16 26 17
f 17 26 27
f 17 27 18
f 18 27 28
f 18 28 19
f 19 28 29
f 19 29 20
f 20 29 30
f 21 31 22
f 22 31 32
f 22 32 23
f 23 32 33
f 23 33 24
f 24 33 34
f 24 34 25
f 25 34 35
f 25 35 26
f 26 35 36
f 26 36 27
f 27 36 37
f 27 37 28
f 28 37 38
f 28 38 29
f 29 38 39
f 29 39 30
f 30 39 40
f 31 41 32
f 32 41 42
f 32 42 33
f 33 42 43
f 33 43 34
f 34 43 44
f 34 44 35
f 35 44 45
f 35 45 36
f 36 45 46
f 36 46 37
f 37 46 47
f 37 47 38
f 38 47 48
f 38 48 39
f 39 48 49
f 39 49 40
f 40 49 50
f 41 51 42
f 42 51 52
f 42 52 43
f 43 52 53
f 43 53 44
f 44 53 54
f 44 54 45
f 45 54 55
f 45 55 46
f 46 55 56
f 46 56 47
f 47 56 57
f 47 57 48
f 48 57 58
f 48 58 49
f 49 58 59
f 49 59 50
f 50 59 60
f 51 61 52
f 52 61 62
f 52 62 53
f 53 62 63
f 53 63 54
f 54 63 64
f 54 64 55
f 55 64 65
f 55 65 56
f 56 65 66
f 56 66 57
f 57 66 67
f 57 67 58
f 58 67 68
f 58 68 59
f 59 68 69
f 59 69 60
f 60 69 70
f 61 71 62
f 62 71 72
f 62 72 63
f 63 72 73
f 63 73 64
f 64 73 74
f 64 74 65
f 65 74 75
f 65 75 66
f 66 75 76
f 66 76 67
f 67 76 77
f 67 77 68
f 68 77 78
f 68 78 69
f 69 78 79
f 69 79 70
f 70 79 80
f 71 81 72
f 72 81 82
f 72 82 73
f 73 82 83
f 73 83 74
f 74 83 84
f 74 84 75
f 75 84 85
f 75 85 76
f 76 85 86
f 76 86 77
f 77 86 87
f 77 87 78
f 78 87 88
f 78 88 79
f 79 88 89
f 79 89 80
f 80 89 90
f 81 91 82
f 82 91 92
f 82 92 83
f 83 92 93
f 83 93 84
f 84 93 94
f 84 94 85
f 85 94 95
f 85 95 86
f 86 95 96
f 86 96 87
f 87 96 97
f 87 97 88
f 88 97 98
f 88 98 89
f 89 98 99
f 89 99 90
f 90 99 100
