# cloth proxy 8x8 vertices=64 faces=98
# size_xy=(0.28, 0.22)
v -0.140000 -0.110000 0.000000
v -0.100000 -0.110000 0.000000
v -0.060000 -0.110000 0.000000
v -0.020000 -0.110000 0.000000
v 0.020000 -0.110000 0.000000
v 0.060000 -0.110000 0.000000
v 0.100000 -0.110000 0.000000
v 0.140000 -0.110000 0.000000
v -0.140000 -0.078571 0.000000
v -0.100000 -0.078571 0.000000
v -0.060000 -0.078571 0.000000
v -0.020000 -0.078571 0.000000
v 0.020000 -0.078571 0.000000
v 0.060000 -0.078571 0.000000
v 0.100000 -0.078571 0.000000
v 0.140000 -0.078571 0.000000
v -0.140000 -0.047143 0.000000
v -0.100000 -0.047143 0.000000
v -0.060000 -0.047143 0.000000
v -0.020000 -0.047143 0.000000
v 0.020000 -0.047143 0.000000
v 0.060000 -0.047143 0.000000
v 0.100000 -0.047143 0.000000
v 0.140000 -0.047143 0.000000
v -0.140000 -0.015714 0.000000
v -0.100000 -0.015714 0.000000
v -0.060000 -0.015714 0.000000
v -0.020000 -0.015714 0.000000
v 0.020000 -0.015714 0.000000
v 0.060000 -0.015714 0.000000
v 0.100000 -0.015714 0.000000
v 0.140000 -0.015714 0.000000
v -0.140000 0.015714 0.000000
v -0.100000 0.015714 0.000000
v -0.060000 0.015714 0.000000
v -0.020000 0.015714 0.000000
v 0.020000 0.015714 0.000000
v 0.060000 0.015714 0.000000
v 0.100000 0.015714 0.000000
v 0.140000 0.015714 0.000000
v -0.140000 0.047143 0.000000
v -0.100000 0.047143 0.000000
v -0.060000 0.047143 0.000000
v -0.020000 0.047143 0.000000
v 0.020000 0.047143 0.000000
v 0.060000 0.047143 0.000000
v 0.100000 0.047143 0.000000
v 0.140000 0.047143 0.000000
v -0.140000 0.078571 0.000000
v -0.100000 0.078571 0.000000
v -0.060000 0.078571 0.000000
v -0.020000 0.078571 0.000000
v 0.020000 0.078571 0.000000
v 0.060000 0.078571 0.000000
v 0.100000 0.078571 0.000000
v 0.140000 0.078571 0.000000
v -0.140000 0.110000 0.000000
v -0.100000 0.110000 0.000000
v -0.060000 0.110000 0.000000
v -0.020000 0.110000 0.000000
v 0.020000 0.110000 0.000000
v 0.060000 0.110000 0.000000
v 0.100000 0.110000 0.000000
v 0.140000 0.110000 0.000000
f 1 9 2
f 2 9 10
f 2 10 3
f 3 10 11
f 3 11 4
f 4 11 12
f 4 12 5
f 5 12 13
f 5 13 6
f 6 13 14
f 6 14 7
f 7 14 15
f 7 15 8
f 8 15 16
f 9 17 10
f 10 17 18
f 10 18 11
f 11 18 19
f 11 19 12
f 12 19 20
f 12 20 13
f 13 20 21
f 13 21 14
f 14 21 22
f 14 22 15
f 15 22 23
f 15 23 16
f 16 23 24
f 17 25 18
f 18 25 26
f 18 26 19
f 19 26 27
f 19 27 20
f 20 27 28
f 20 28 21
f 21 28 29
f 21 29 22
f 22 29 30
f 22 30 23
f 23 30 31
f 23 31 24
f 24 31 32
f 25 33 26
f 26 33 34
f 26 34 27
f 27 34 35
f 27 35 28
f 28 35 36
f 28 36 29
f 29 36 37
f 29 37 30
f 30 37 38
f 30 38 31
f 31 38 39
f 31 39 32
f 32 39 40
f 33 41 34
f 34 41 42
f 34 42 35
f 35 42 43
f 35 43 36
f 36 43 44
f 36 44 37
f 37 44 45
f 37 45 38
f 38 45 46
f 38 46 39
f 39 46 47
f 39 47 40
f 40 47 48
f 41 49 42
f 42 49 50
f 42 50 43
f 43 50 51
f 43 51 44
f 44 51 52
f 44 52 45
f 45 52 53
f 45 53 46
f 46 53 54
f 46 54 47
f 47 54 55
f 47 55 48
f 48 55 56
f 49 57 50
f 50 57 58
f 50 58 51
f 51 58 59
f 51 59 52
f 52 59 60
f 52 60 53
f 53 60 61
f 53 61 54
f 54 61 62
f 54 62 55
f 55 62 63
f 55 63 56
f 56 63 64
