# cloth proxy 12x12 vertices=144 faces=242
# size_xy=(0.28, 0.22)
v -0.140000 -0.110000 0.000000
v -0.114545 -0.110000 0.000000
v -0.089091 -0.110000 0.000000
v -0.063636 -0.110000 0.000000
v -0.038182 -0.110000 0.000000
v -0.012727 -0.110000 0.000000
v 0.012727 -0.110000 0.000000
v 0.038182 -0.110000 0.000000
v 0.063636 -0.110000 0.000000
v 0.089091 -0.110000 0.000000
v 0.114545 -0.110000 0.000000
v 0.140000 -0.110000 0.000000
v -0.140000 -0.090000 0.000000
v -0.114545 -0.090000 0.000000
v -0.089091 -0.090000 0.000000
v -0.063636 -0.090000 0.000000
v -0.038182 -0.090000 0.000000
v -0.012727 -0.090000 0.000000
v 0.012727 -0.090000 0.000000
v 0.038182 -0.090000 0.000000
v 0.063636 -0.090000 0.000000
v 0.089091 -0.090000 0.000000
v 0.114545 -0.090000 0.000000
v 0.140000 -0.090000 0.000000
v -0.140000 -0.070000 0.000000
v -0.114545 -0.070000 0.000000
v -0.089091 -0.070000 0.000000
v -0.063636 -0.070000 0.000000
v -0.038182 -0.070000 0.000000
v -0.012727 -0.070000 0.000000
v 0.012727 -0.070000 0.000000
v 0.038182 -0.070000 0.000000
v 0.063636 -0.070000 0.000000
v 0.089091 -0.070000 0.000000
v 0.114545 -0.070000 0.000000
v 0.140000 -0.070000 0.000000
v -0.140000 -0.050000 0.000000
v -0.114545 -0.050000 0.000000
v -0.089091 -0.050000 0.000000
v -0.063636 -0.050000 0.000000
v -0.038182 -0.050000 0.000000
v -0.012727 -0.050000 0.000000
v 0.012727 -0.050000 0.000000
v 0.038182 -0.050000 0.000000
v 0.063636 -0.050000 0.000000
v 0.089091 -0.050000 0.000000
v 0.114545 -0.050000 0.000000
v 0.140000 -0.050000 0.000000
v -0.140000 -0.030000 0.000000
v -0.114545 -0.030000 0.000000
v -0.089091 -0.030000 0.000000
v -0.063636 -0.030000 0.000000
v -0.038182 -0.030000 0.000000
v -0.012727 -0.030000 0.000000
v 0.012727 -0.030000 0.000000
v 0.038182 -0.030000 0.000000
v 0.063636 -0.030000 0.000000
v 0.089091 -0.030000 0.000000
v 0.114545 -0.030000 0.000000
v 0.140000 -0.030000 0.000000
v -0.140000 -0.010000 0.000000
v -0.114545 -0.010000 0.000000
v -0.089091 -0.010000 0.000000
v -0.063636 -0.010000 0.000000
v -0.038182 -0.010000 0.000000
v -0.012727 -0.010000 0.000000
v 0.012727 -0.010000 0.000000
v 0.038182 -0.010000 0.000000
v 0.063636 -0.010000 0.000000
v 0.089091 -0.010000 0.000000
v 0.114545 -0.010000 0.000000
v 0.140000 -0.010000 0.000000
v -0.140000 0.010000 0.000000
v -0.114545 0.010000 0.000000
v -0.089091 0.010000 0.000000
v -0.063636 0.010000 0.000000
v -0.038182 0.010000 0.000000
v -0.012727 0.010000 0.000000
v 0.012727 0.010000 0.000000
v 0.038182 0.010000 0.000000
v 0.063636 0.010000 0.000000
v 0.089091 0.010000 0.000000
v 0.114545 0.010000 0.000000
v 0.140000 0.010000 0.000000
v -0.140000 0.030000 0.000000
v -0.114545 0.030000 0.000000
v -0.089091 0.030000 0.000000
v -0.063636 0.030000 0.000000
v -0.038182 0.030000 0.000000
v -0.012727 0.030000 0.000000
v 0.012727 0.030000 0.000000
v 0.038182 0.030000 0.000000
v 0.063636 0.030000 0.000000
v 0.089091 0.030000 0.000000
v 0.114545 0.030000 0.000000
v 0.140000 0.030000 0.000000
v -0.140000 0.050000 0.000000
v -0.114545 0.050000 0.000000
v -0.089091 0.050000 0.000000
v -0.063636 0.050000 0.000000
v -0.038182 0.050000 0.000000
v -0.012727 0.050000 0.000000
v 0.012727 0.050000 0.000000
v 0.038182 0.050000 0.000000
v 0.063636 0.050000 0.000000
v 0.089091 0.050000 0.000000
v 0.114545 0.050000 0.000000
v 0.140000 0.050000 0.000000
v -0.140000 0.070000 0.000000
v -0.114545 0.070000 0.000000
v -0.089091 0.070000 0.000000
v -0.063636 0.070000 0.000000
v -0.038182 0.070000 0.000000
v -0.012727 0.070000 0.000000
v 0.012727 0.070000 0.000000
v 0.038182 0.070000 0.000000
v 0.063636 0.070000 0.000000
v 0.089091 0.070000 0.000000
v 0.114545 0.070000 0.000000
v 0.140000 0.070000 0.000000
v -0.140000 0.090000 0.000000
v -0.114545 0.090000 0.000000
v -0.089091 0.090000 0.000000
v -0.063636 0.090000 0.000000
v -0.038182 0.090000 0.000000
v -0.012727 0.090000 0.000000
v 0.012727 0.090000 0.000000
v 0.038182 0.090000 0.000000
v 0.063636 0.090000 0.000000
v 0.089091 0.090000 0.000000
v 0.114545 0.090000 0.000000
v 0.140000 0.090000 0.000000
v -0.140000 0.110000 0.000000
v -0.114545 0.110000 0.000000
v -0.089091 0.110000 0.000000
v -0.063636 0.110000 0.000000
v -0.038182 0.110000 0.000000
v -0.012727 0.110000 0.000000
v 0.012727 0.110000 0.000000
v 0.038182 0.110000 0.000000
v 0.063636 0.110000 0.000000
v 0.089091 0.110000 0.000000
v 0.114545 0.110000 0.000000
v 0.140000 0.110000 0.000000
f 1 13 2
f 2 13 14
f 2 14 3
f 3 14 15
f 3 15 4
f 4 15 16
f 4 16 5
f 5 16 17
f 5 17 6
f 6 17 18
f 6 18 7
f 7 18 19
f 7 19 8
f 8 19 20
f 8 20 9
f 9 20 21
f 9 21 10
f 10 21 22
f 10 22 11
f 11 22 23
f 11 23 12
f 12 23 24
f 13 25 14
f 14 25 26
f 14 26 15
f 15 26 27
f 15 27 16
f 16 27 28
f 16 28 17
f 17 28 29
f 17 29 18
f 18 29 30
f 18 30 19
f 19 30 31
f 19 31 20
f 20 31 32
f 20 32 21
f 21 32 33
f 21 33 22
f 22 33 34
f 22 34 23
f 23 34 35
f 23 35 24
f 24 35 36
f 25 37 26
f 26 37 38
f 26 38 27
f 27 38 39
f 27 39 28
f 28 39 40
f 28 40 29
f 29 40 41
f 29 41 30
f 30 41 42
f 30 42 31
f 31 42 43
f 31 43 32
f 32 43 44
f 32 44 33
f 33 44 45
f 33 45 34
f 34 45 46
f 34 46 35
f 35 46 47
f 35 47 36
f 36 47 48
f 37 49 38
f 38 49 50
f 38 50 39
f 39 50 51
f 39 51 40
f 40 51 52
f 40 52 41
f 41 52 53
f 41 53 42
f 42 53 54
f 42 54 43
f 43 54 55
f 43 55 44
f 44 55 56
f 44 56 45
f 45 56 57
f 45 57 46
f 46 57 58
f 46 58 47
f 47 58 59
f 47 59 48
f 48 59 60
f 49 61 50
f 50 61 62
f 50 62 51
f 51 62 63
f 51 63 52
f 52 63 64
f 52 64 53
f 53 64 65
f 53 65 54
f 54 65 66
f 54 66 55
f 55 66 67
f 55 67 56
f 56 67 68
f 56 68 57
f 57 68 69
f 57 69 58
f 58 69 70
f 58 70 59
f 59 70 71
f 59 71 60
f 60 71 72
f 61 73 62
f 62 73 74
f 62 74 63
f 63 74 75
f 63 75 64
f 64 75 76
f 64 76 65
f 65 76 77
f 65 77 66
f 66 77 78
f 66 78 67
f 67 78 79
f 67 79 68
f 68 79 80
f 68 80 69
f 69 80 81
f 69 81 70
f 70 81 82
f 70 82 71
f 71 82 83
f 71 83 72
f 72 83 84
f 73 85 74
f 74 85 86
f 74 86 75
f 75 86 87
f 75 87 76
f 76 87 88
f 76 88 77
f 77 88 89
f 77 89 78
f 78 89 90
f 78 90 79
f 79 90 91
f 79 91 80
f 80 91 92
f 80 92 81
f 81 92 93
f 81 93 82
f 82 93 94
f 82 94 83
f 83 94 95
f 83 95 84
f 84 95 96
f 85 97 86
f 86 97 98
f 86 98 87
f 87 98 99
f 87 99 88
f 88 99 100
f 88 100 89
f 89 100 101
f 89 101 90
f 90 101 102
f 90 102 91
f 91 102 103
f 91 103 92
f 92 103 104
f 92 104 93
f 93 104 105
f 93 105 94
f 94 105 106
f 94 106 95
f 95 106 107
f 95 107 96
f 96 107 108
f 97 109 98
f 98 109 110
f 98 110 99
f 99 110 111
f 99 111 100
f 100 111 112
f 100 112 101
f 101 112 113
f 101 113 102
f 102 113 114
f 102 114 103
f 103 114 115
f 103 115 104
f 104 115 116
f 104 116 105
f 105 116 117
f 105 117 106
f 106 117 118
f 106 118 107
f 107 118 119
f 107 119 108
f 108 119 120
f 109 121 110
f 110 121 122
f 110 122 111
f 111 122 123
f 111 123 112
f 112 123 124
f 112 124 113
f 113 124 125
f 113 125 114
f 114 125 126
f 114 126 115
f 115 126 127
f 115 127 116
f 116 127 128
f 116 128 117
f 117 128 129
f 117 129 118
f 118 129 130
f 118 130 119
f 119 130 131
f 119 131 120
f 120 131 132
f 121 133 122
f 122 133 134
f 122 134 123
f 123 134 135
f 123 135 124
f 124 135 136
f 124 136 125
f 125 136 137
f 125 137 126
f 126 137 138
f 126 138 127
f 127 138 139
f 127 139 128
f 128 139 140
f 128 140 129
f 129 140 141
f 129 141 130
f 130 141 142
f 130 142 131
f 131 142 143
f 131 143 132
f 132 143 144
