<svg xmlns="http://www.w3.org/2000/svg" width="880" height="440" viewBox="0 0 880 440" role="img"><rect width="880" height="440" fill="#fcfcfb"/><text x="36" y="26" font-size="15.5" font-weight="600" fill="#0b0b0b" font-family="ui-sans-serif,-apple-system,'Segoe UI',Roboto,Helvetica,Arial,sans-serif">Terrain transfer: what actually buys robustness to rough ground</text><text x="36" y="44" font-size="12.5" fill="#52514e" font-family="ui-sans-serif,-apple-system,'Segoe UI',Roboto,Helvetica,Arial,sans-serif">Sim2sim. Training and evaluation terrain come from different generators.</text><line x1="76" y1="356.5" x2="670" y2="356.5" stroke="#e6e5e1" stroke-width="1"/><text x="66" y="360.5" text-anchor="end" font-size="12" fill="#8a8880" font-family="ui-sans-serif,-apple-system,'Segoe UI',Roboto,Helvetica,Arial,sans-serif">0.00</text><line x1="76" y1="287.8" x2="670" y2="287.8" stroke="#e6e5e1" stroke-width="1"/><text x="66" y="291.8" text-anchor="end" font-size="12" fill="#8a8880" font-family="ui-sans-serif,-apple-system,'Segoe UI',Roboto,Helvetica,Arial,sans-serif">0.25</text><line x1="76" y1="219.0" x2="670" y2="219.0" stroke="#e6e5e1" stroke-width="1"/><text x="66" y="223.0" text-anchor="end" font-size="12" fill="#8a8880" font-family="ui-sans-serif,-apple-system,'Segoe UI',Roboto,Helvetica,Arial,sans-serif">0.50</text><line x1="76" y1="150.2" x2="670" y2="150.2" stroke="#e6e5e1" stroke-width="1"/><text x="66" y="154.2" text-anchor="end" font-size="12" fill="#8a8880" font-family="ui-sans-serif,-apple-system,'Segoe UI',Roboto,Helvetica,Arial,sans-serif">0.75</text><line x1="76" y1="81.5" x2="670" y2="81.5" stroke="#e6e5e1" stroke-width="1"/><text x="66" y="85.5" text-anchor="end" font-size="12" fill="#8a8880" font-family="ui-sans-serif,-apple-system,'Segoe UI',Roboto,Helvetica,Arial,sans-serif">1.00</text><text x="92.8" y="382" text-anchor="middle" font-size="12" fill="#8a8880" font-family="ui-sans-serif,-apple-system,'Segoe UI',Roboto,Helvetica,Arial,sans-serif">0</text><text x="204.9" y="382" text-anchor="middle" font-size="12" fill="#8a8880" font-family="ui-sans-serif,-apple-system,'Segoe UI',Roboto,Helvetica,Arial,sans-serif">0.2</text><text x="317.0" y="382" text-anchor="middle" font-size="12" fill="#8a8880" font-family="ui-sans-serif,-apple-system,'Segoe UI',Roboto,Helvetica,Arial,sans-serif">0.4</text><text x="429.0" y="382" text-anchor="middle" font-size="12" fill="#8a8880" font-family="ui-sans-serif,-apple-system,'Segoe UI',Roboto,Helvetica,Arial,sans-serif">0.6</text><text x="541.1" y="382" text-anchor="middle" font-size="12" fill="#8a8880" font-family="ui-sans-serif,-apple-system,'Segoe UI',Roboto,Helvetica,Arial,sans-serif">0.8</text><text x="653.2" y="382" text-anchor="middle" font-size="12" fill="#8a8880" font-family="ui-sans-serif,-apple-system,'Segoe UI',Roboto,Helvetica,Arial,sans-serif">1</text><line x1="76" y1="362" x2="670" y2="362" stroke="#c9c7c1" stroke-width="1"/><text x="373" y="406" text-anchor="middle" font-size="12.5" fill="#52514e" font-family="ui-sans-serif,-apple-system,'Segoe UI',Roboto,Helvetica,Arial,sans-serif">MuJoCo terrain difficulty</text><text transform="translate(28,219) rotate(-90)" text-anchor="middle" font-size="12.5" fill="#52514e" font-family="ui-sans-serif,-apple-system,'Segoe UI',Roboto,Helvetica,Arial,sans-serif">fall rate</text><path d="M92.8,292.3 L120.8,148.7 L148.8,115.1 L204.9,81.5 L317.0,81.5" fill="none" stroke="#86b6ef" stroke-width="2" stroke-linejoin="round" stroke-linecap="round" opacity="1.0"/><circle cx="92.8" cy="292.3" r="4" fill="#86b6ef"/><circle cx="120.8" cy="148.7" r="4" fill="#86b6ef"/><circle cx="148.8" cy="115.1" r="4" fill="#86b6ef"/><circle cx="204.9" cy="81.5" r="4" fill="#86b6ef"/><circle cx="317.0" cy="81.5" r="4" fill="#86b6ef"/><path d="M92.8,356.5 L120.8,356.5 L148.8,356.5 L204.9,356.5 L317.0,347.3 L429.0,322.9 L541.1,298.4 L653.2,252.6" fill="none" stroke="#2a78d6" stroke-width="2" stroke-linejoin="round" stroke-linecap="round" opacity="1.0"/><circle cx="92.8" cy="356.5" r="4" fill="#2a78d6"/><circle cx="120.8" cy="356.5" r="4" fill="#2a78d6"/><circle cx="148.8" cy="356.5" r="4" fill="#2a78d6"/><circle cx="204.9" cy="356.5" r="4" fill="#2a78d6"/><circle cx="317.0" cy="347.3" r="4" fill="#2a78d6"/><circle cx="429.0" cy="322.9" r="4" fill="#2a78d6"/><circle cx="541.1" cy="298.4" r="4" fill="#2a78d6"/><circle cx="653.2" cy="252.6" r="4" fill="#2a78d6"/><path d="M92.8,356.5 L120.8,356.5 L148.8,356.5 L204.9,356.5 L317.0,356.5 L429.0,356.5 L541.1,353.4 L653.2,347.3" fill="none" stroke="#104281" stroke-width="2" stroke-linejoin="round" stroke-linecap="round" opacity="1.0"/><circle cx="92.8" cy="356.5" r="4" fill="#104281"/><circle cx="120.8" cy="356.5" r="4" fill="#104281"/><circle cx="148.8" cy="356.5" r="4" fill="#104281"/><circle cx="204.9" cy="356.5" r="4" fill="#104281"/><circle cx="317.0" cy="356.5" r="4" fill="#104281"/><circle cx="429.0" cy="356.5" r="4" fill="#104281"/><circle cx="541.1" cy="353.4" r="4" fill="#104281"/><circle cx="653.2" cy="347.3" r="4" fill="#104281"/><circle cx="326" cy="78" r="3.5" fill="#86b6ef"/><text x="334" y="82" font-size="11.5" fill="#52514e" font-family="ui-sans-serif,-apple-system,'Segoe UI',Roboto,Helvetica,Arial,sans-serif">no randomization</text><circle cx="662" cy="249" r="3.5" fill="#2a78d6"/><text x="670" y="253" font-size="11.5" fill="#52514e" font-family="ui-sans-serif,-apple-system,'Segoe UI',Roboto,Helvetica,Arial,sans-serif">randomization only</text><circle cx="662" cy="343" r="3.5" fill="#104281"/><text x="670" y="347" font-size="11.5" fill="#52514e" font-family="ui-sans-serif,-apple-system,'Segoe UI',Roboto,Helvetica,Arial,sans-serif">trained on terrain</text><text x="76" y="426" font-size="11.5" fill="#8a8880" font-family="ui-sans-serif,-apple-system,'Segoe UI',Roboto,Helvetica,Arial,sans-serif">Randomization alone carries the robot to d~0.4 without ever seeing terrain. Past that, terrain training is what holds.</text></svg>